<?xml version="1.0" encoding="utf-8"?>
<!-- Generator: Adobe Illustrator 16.0.4, SVG Export Plug-In . SVG Version: 6.00 Build 0)  -->
<!DOCTYPE svg PUBLIC "-//W3C//DTD SVG 1.1//EN" "http://www.w3.org/Graphics/SVG/1.1/DTD/svg11.dtd">
<svg version="1.1" id="Layer_1" xmlns="http://www.w3.org/2000/svg" xmlns:xlink="http://www.w3.org/1999/xlink" x="0px" y="0px"
	 width="150.189px" height="151.698px" viewBox="0 0 150.189 151.698" enable-background="new 0 0 150.189 151.698"
	 xml:space="preserve">
<g>
	<path fill="#FFFFFF" d="M105.651,118.357l-1.991,1.149l4.283,7.421l1.925-1.107c0,0,3.193-1.615,1.111-5.221
		C109.59,118.191,107.647,117.209,105.651,118.357z"/>
	<path fill="#FFFFFF" d="M119.83,97.485c-0.006,0.006-0.008,0.006-0.011,0.011c-10.748,14.302-27.129,23.447-45.493,23.447
		c-17.596,0-33.372-8.402-44.112-21.695l-0.012,0.007c0,0-3.079-4.056-8.176-3.069c-4.363,0.84-9.069,7.284-3.779,17.043
		c12.137,17.008,32.808,28.209,56.277,28.209c23.136,0,43.555-10.891,55.755-27.496l0.349-0.534c0,0,5.377-6.778,1.242-13.871
		C128.518,94.412,121.114,95.715,119.83,97.485z M47.396,128.738c-0.937,1.723-3.939,1.889-6.712,0.379
		c-2.751-1.506-4.236-4.097-3.339-5.813l4.31-7.909l2.507,1.367l-4.005,7.352l0.014,0.007c-0.798,1.463-0.125,2.979,1.212,3.71
		c1.336,0.729,2.978,0.477,3.776-0.987l0.015,0.005l4.006-7.353l2.511,1.368L47.396,128.738z M64.016,136.268l-2.782-0.66
		l-4.553-9.605l-1.902,8.094L52,133.441l2.848-12.137l2.474,0.574l0.003-0.011l0.009,0.016h0.018l0.003,0.041l4.792,9.783
		l1.937-8.237l2.782,0.649L64.016,136.268z M73.873,137.966h-2.854v-12.384h2.854V137.966z M85.3,137.295l-2.828,0.402
		l-1.505-10.689l-3.734,0.529l-0.235-1.667l10.296-1.447l0.235,1.66l-3.733,0.527L85.3,137.295z M94.287,135.286l-4.868-11.483
		l6.506-2.757l0.657,1.545l-3.875,1.645l1.341,3.17l3.875-1.643l0.655,1.546l-3.872,1.641l1.557,3.678l4.788-2.028l0.658,1.545
		L94.287,135.286z M112.161,126.698l-5.742,3.308l-6.187-10.717l5.633-3.257c0,0,4.812-2.545,7.768,2.579
		C116.028,122.758,113.551,125.573,112.161,126.698z"/>
	<path fill="#FFFFFF" d="M57.572,55.818c1.427,0.764,3.498,1.097,3.498,1.097C60.413,55.014,57.576,55.818,57.572,55.818z"/>
	<path fill="#FFFFFF" d="M68.359,56.916v-2.361h-3.481v-6.043c0,0-2.102,4.603-3.808,8.404
		C61.07,56.916,64.168,56.916,68.359,56.916z"/>
	<rect x="49.117" y="60.333" fill="#FFFFFF" width="51.218" height="3.544"/>
	<path fill="#FFFFFF" d="M49.117,59.345h7.223v-4.659c0.189,0.454,0.661,0.828,1.232,1.132l7.306-7.307h3.481v-1.969h0.653v1.969
		h2.957v6.043h-2.957v2.361h7.816v-2.361H74.2v-6.043h2.629v-1.969h0.654v1.969h3.811v6.043h-3.811v2.361h8.142v-2.361h-3.282
		v-6.043h3.282v-1.969h0.657v1.969h3.154v6.043h-3.154v2.361h4.369c0,0.362-0.581,1.551-1.036,2.43h10.72V44.968H49.117V59.345z"/>
	<path fill="#FFFFFF" d="M89.617,71.229h0.654v3.97h-2.326v-3.97h0.982l-2.011-4.021l-1.749,4.021h0.722v3.97h-2.327v-3.97h0.948
		l-2.01-4.021l-1.75,4.021h0.756v7.117h4.383v2.097c-1.789-0.156-3.579,0.453-3.992,0.918c-0.73,0.822-4.566,1.645-2.647,0
		c1.917-1.643,2.92-1.643,1.277-2.463c-1.643-0.821-2.008-1.734-2.008-1.734l0.181-5.573l2.375-3.923h-2.831l-1.735-3.47
		l-1.802,3.47h-2.488l-1.735-3.47l-1.804,3.47h-3.035l4.839,9.311l-2.831,2.739c0,0-0.637,2.465,0.824,4.014
		c1.46,1.553,1.823,2.466,0.729,4.022c-1.094,1.551-1.186,2.188-1.186,2.188s-1.554,2.372-1.735-0.638
		c-0.184-3.016-0.732-7.851-0.732-7.851l2.56-4.66c0,0-3.562-0.913-4.29-8.305c-1.735,2.372-3.474,1.091-4.476,0.275
		c-1.097,3.378-2.831,5.657-3.742,4.836c-0.913-0.82-2.282-1.189-2.282-1.189s2.557,4.291,1.457,6.756
		c3.014-3.011,5.481-4.107,6.483-3.471c1.005,0.644,1.188,1.466-1.552,3.929c2.06,0.902,2.485,0.896,2.557,0.809v13.799
		c0,0-0.548,4.928,3.104,4.928c2.1,0,2.466,0,2.466,0l-0.729,8.035c0,0,0.272,1.46,0.637,2.194c0.368,0.729,1.918,2.373,1.918,2.373
		s0.458,0.73,0.274,1.55c-0.182,0.821-0.822,3.562,0.824,4.016c1.643,0.46,4.654-1.459,5.292-1.82c0.641-0.368,1.555-1.281,0-3.108
		c-1.551-1.825-2.921-4.474-1.462-5.204c1.462-0.729,2.648-1.183,1.371-3.469c-1.279-2.28-3.65-7.944-1.735-5.749l8.399,9.31
		c0,0,1.279,1.368,1.463,0.369c-0.092-1.189-0.855-8.709-0.184-9.495c0.672-0.799-0.273-1.735-2.283-1.558
		c-0.182-1.918,0.365-2.732,0.456-3.469c0.092-0.729-1.37-0.913-3.469,0.459c-1.095,0.455,0.184-2.188,0.821-2.923
		c0.641-0.729,1.005-1.459,1.005-1.459l5.297,2.648c0,0,0.057,0,0.157,0v15.881h0.008c0.04,0.534,0.48,0.954,1.02,0.954
		c0.543,0,0.982-0.42,1.021-0.954h0.007V91.562c1.471-0.453,2.846-1.573,1.163-4.358c0.914-0.73,2.009-1.368,0.272-4.653
		c-0.359-0.684-0.86-1.16-1.436-1.494v-2.71h4.383v-7.117h1.049l-2.009-4.021L89.617,71.229z M71.397,72.596l-0.184-2.923
		l1.555,2.377L71.397,72.596z M74.045,79.168l-1.371-3.011c0.365,0,2.83,0,2.83,0L74.045,79.168z M76.328,72.596l-1.369-0.546
		l1.55-2.377L76.328,72.596z"/>
	<path fill="#FFFFFF" d="M15.495,71.988c-5.873,0-10.636,4.762-10.636,10.637c0,5.876,4.763,10.638,10.636,10.638
		c5.876,0,10.64-4.762,10.64-10.638C26.134,76.75,21.371,71.988,15.495,71.988z M23.809,78.57c-1.097,3.407-4.26,5.87-8.01,5.944
		c0.097-2.894,0.795-5.524,1.918-7.634c1.342-0.188,2.591-0.666,3.685-1.365C22.405,76.347,23.232,77.386,23.809,78.57z
		 M15.495,73.366c1.996,0,3.828,0.649,5.34,1.723c-1.293,0.776-2.802,1.235-4.418,1.235c-2.001,0-3.836-0.689-5.299-1.837
		C12.425,73.779,13.909,73.366,15.495,73.366z M8.421,88.593C7.059,86.98,6.239,84.9,6.239,82.625c0-1.258,0.253-2.451,0.704-3.543
		c0.35,0.959,0.87,1.832,1.496,2.613c-0.188,1.12-0.296,2.279-0.296,3.492C8.143,86.365,8.246,87.496,8.421,88.593z M7.362,78.196
		c0.747-1.36,1.834-2.516,3.142-3.354c0.123,0.103,0.271,0.184,0.398,0.281c-1.038,1.574-1.843,3.503-2.306,5.676
		C8.056,80.011,7.622,79.144,7.362,78.196z M15.495,91.885c-2.398,0-4.577-0.92-6.225-2.42c-0.301-1.343-0.473-2.778-0.473-4.278
		c0-3.807,1.066-7.209,2.748-9.615c1.416,0.879,3.079,1.407,4.871,1.407c0.148,0,0.293-0.024,0.439-0.028
		c-1.092,2.32-1.754,5.152-1.754,8.236c0,2.412,0.395,4.676,1.088,6.662C15.959,91.867,15.73,91.885,15.495,91.885z M16.917,91.763
		c-0.733-1.937-1.158-4.181-1.158-6.576c0-0.006,0-0.006,0-0.012c3.807-0.052,7.057-2.395,8.427-5.722
		c0.362,0.995,0.571,2.058,0.571,3.171C24.756,87.254,21.354,91.081,16.917,91.763z"/>
	<path fill="#FFFFFF" d="M147.909,82.625c0-7.237-5.865-13.102-13.099-13.102c-7.238,0-13.103,5.865-13.103,13.102
		c0,5.093,2.909,9.496,7.151,11.664c-1.474-0.543-2.879-0.703-3.888-0.727c-3.074-0.081-5.914,0.941-7.071,2.538
		c-8.847,11.767-21.198,19.393-34.761,21.718l19.823-13.791V46.38c4.833,4.629,8.278,9.542,10.473,12.678
		c7.287,10.414,13.798,11.2,16.26,11.057c3.309-0.195,11.896-3.635,11.896-17.019c0,0-0.018-1.081-0.018-1.087l-0.069-2.084
		c0,0-1.644-0.144-1.908-0.167c-0.304-0.146-0.904-0.652-1.777-1.49l0.211-2.721l0.77,0.845l0.497,0.018
		c0.194,0.005,1.952,0.028,3.043-1.39c0.857-1.114,0.98-2.705,0.363-4.733l-0.077-0.247l-0.173-0.195
		c-3.28-3.672-7.903-8.042-7.953-8.082l-1.795-1.543l0.132,0.129c-0.818-0.86-1.944-1.183-3.148-0.786
		c-1.97,0.645-3.502,2.859-3.596,5.061c-8.699-10.395-18.415-17.597-29.064-21.531c0.059-0.091,0.115-0.182,0.15-0.251
		c0.862-1.694,0.378-4.107-0.396-4.784c-0.534-0.465-1.162-0.408-1.794-0.207c0-0.023,0.014-0.045,0.014-0.069
		c0-0.966-0.527-2.01-0.976-2.574c-4.615-4.4-12.088,2.969-12.404,3.279l-0.118,0.121l-0.058,0.155
		c-0.142,0.36-0.21,0.658-0.223,0.935c-0.137-0.01-0.272-0.024-0.409-0.033c-0.408-1.443-1.196-3.887-2.048-4.652
		c-0.729-0.656-2.914-2.035-4.657-1.856c-0.69,0.075-1.249,0.378-1.625,0.89c-0.247,0.339-0.369,0.656-0.369,0.955
		c0,0.149,0.032,0.293,0.094,0.43c0.234,0.524,0.748,0.644,1.249,0.713c-0.57,0.355-1.256,0.551-1.471,0.448l-0.961-1.248
		l-0.444,1.443l-0.324,1.147c-0.208,0.698-0.389,1.304-0.274,1.886c-0.505,0.042-0.995,0.098-1.491,0.148l-0.165-0.218
		c-0.188-0.247-4.645-6.031-10.688-5.928h-0.054l-0.049,0.012c-1.567,0.235-2.253,1.804-2.375,3.188
		c-0.011,0.12-0.021,0.28-0.021,0.448c-1.209-0.082-2.227,0.333-2.802,1.142c-0.757,1.065-0.678,2.692,0.236,4.832
		C37.531,18.721,28.54,28.22,23.499,34.867c0.018-2.28-1.564-4.636-3.607-5.304c-1.206-0.396-2.331-0.074-3.147,0.786l-1.665,1.414
		c-0.047,0.04-4.671,4.41-7.95,8.082L6.956,40.04l-0.076,0.247c-0.619,2.028-0.497,3.619,0.36,4.733
		c1.089,1.418,2.848,1.395,3.046,1.39l0.496-0.018l0.766-0.845l0.207,2.667c-1.584,1.152-2.713,1.804-2.741,1.821l-1.239,0.694
		l0.041,1.424c0.222,8.145,3.145,14.669,7.631,17.036c0.265,0.139,0.548,0.263,0.847,0.374c-0.266-0.016-0.528-0.041-0.798-0.041
		c-7.233,0-13.099,5.865-13.099,13.102c0,7.238,5.865,13.104,13.099,13.104c0.854,0,1.688-0.088,2.497-0.244
		c-1.353,1.004-2.501,2.381-3.286,4.044c-1.146,2.426-2.485,7.578,1.447,14.826c9.208,12.924,22.629,22.165,37.867,26.559
		c0.116,3.521,3.442,6.359,7.525,6.359c2.988,0,5.542-1.534,6.754-3.731c0.148,0.013,0.297,0.021,0.446,0.033
		c0.407,3.078,3.179,5.474,6.542,5.474c3.395,0,6.166-2.452,6.524-5.582c1.197,2.239,3.796,3.807,6.821,3.807
		c4.152,0,7.531-2.939,7.531-6.548c0-0.053-0.006-0.104-0.008-0.156c14.427-4.414,27.155-13.176,36.014-25.226
		c0.023-0.041,0.415-0.632,0.415-0.632c0.003,0.012,6.274-7.842,1.311-16.37l-0.064-0.097c-1.066-1.631-2.388-2.698-3.726-3.4
		c1.462,0.563,3.044,0.885,4.705,0.885C142.043,95.728,147.909,89.863,147.909,82.625z M101.779,103.407l-21.274,14.805
		c-2.044,0.243-4.11,0.37-6.194,0.37c-1.841,0-3.67-0.111-5.485-0.305l-21.219-14.87V46.221c1.455-1.402,2.921-2.698,4.418-3.878
		h46.2c1.255,0.943,2.438,1.928,3.555,2.937V103.407z M66.272,117.934c-13.159-2.07-25.333-9.155-34.238-20.174
		c-0.698-0.842-4.173-4.639-9.633-4.016c3.714-2.312,6.193-6.421,6.193-11.12c0-5.871-3.859-10.838-9.18-12.504
		c4.752,0.11,11.235-2.649,16.324-10.545c3.728-4.574,7.192-8.678,10.684-12.188v56.634L66.272,117.934z M53.582,41.161
		c6.077-4.396,12.768-6.899,21.407-6.899c8.658,0,15.81,2.932,21.596,6.899H53.582z M133.69,32.625c0,0,4.596,4.331,7.881,8.007
		c1.444,4.727-2.232,4.6-2.232,4.6l-7.88-8.666C133.23,35.772,133.69,32.625,133.69,32.625z M132.246,31.441
		c1.577,2.367-2.399,4.791-2.399,4.791l7.095,8.075l-0.199,2.562c0,0-8.305-8.732-9.485-11.885
		C127.122,31.964,130.668,29.074,132.246,31.441z M82.177,9.045c0,0,7.192-7.185,11.231-3.348c0.786,0.987,1.476,3.251-0.395,3.154
		c-1.873-0.098-1.771-1.775-2.659-0.495c-0.888,1.281,0.592,1.677,2.068,1.378c1.476-0.292,3.051-1.769,3.843-1.08
		c0.456,0.401,1.046,2.664,0.01,4.161c-0.002,0.002-0.004,0.004-0.006,0.006c-4.584-1.62-9.339-2.642-14.258-3.06
		C82.031,9.537,82.077,9.302,82.177,9.045z M91.205,8.982c-0.112-0.017-0.265-0.028-0.313-0.057
		c0.044-0.035,0.081-0.074,0.093-0.098C91.042,8.873,91.136,8.93,91.205,8.982z M71.342,6.978c0.299,0.891,2.659,0.299,3.383-0.884
		c0.725-1.184-2.689-0.098-1.607-1.58C74.2,3.038,77.253,4.715,78.239,5.6c0.7,0.628,1.4,2.813,1.748,4.026
		c-1.036-0.053-2.077-0.086-3.128-0.086c-2.097,0-4.116,0.083-6.075,0.226C70.602,9.17,70.971,8.47,71.342,6.978z M55.093,8.259
		c0.394,3.152,4.922,0.396,4.629-0.592c-0.295-0.982-2.856,1.184-3.449,0.988c-0.591-0.2-0.591-3.745,1.378-4.038
		c5.158-0.094,9.18,4.537,9.918,5.445c-5.254,0.6-9.993,1.688-14.251,3.122C51.45,8.851,53.71,8.162,55.093,8.259z M17.336,31.441
		c1.575-2.367,5.119,0.523,4.987,3.544c-1.181,3.153-9.486,11.885-9.486,11.885l-0.198-2.562l7.092-8.075
		C19.731,36.232,15.758,33.808,17.336,31.441z M10.243,45.231c0,0-3.677,0.127-2.232-4.6c3.282-3.676,7.881-8.007,7.881-8.007
		s0.46,3.148,2.231,3.941L10.243,45.231z M16.192,68.145c-4.106-2.166-6.788-8.306-7.001-16.021l-0.017-0.712l0.62-0.349
		c0.069-0.041,7.002-3.987,11.119-10.167l0.229-0.338c4.905-7.381,19.837-29.835,55.915-29.835
		c20.479,0,38.271,10.266,52.875,30.506l1.247,1.655l1.956,2.062c1.136,1.213,3.073,3.286,4.562,4.645l0.017,0.018v-0.002
		c0.772,0.704,1.425,1.217,1.775,1.307c0.151,0.018,1.063,0.098,1.063,0.098l0.034,1.04c0.012,0.356,0.019,0.707,0.019,1.046
		c0,12.435-7.725,15.658-10.783,15.835c-2.262,0.133-8.276-0.625-15.221-10.545c-5.302-7.577-17.715-25.307-39.418-25.307
		c-17.86,0-27.561,10.28-40.244,25.858C28.608,68.759,20.168,70.235,16.192,68.145z M15.495,94.641
		c-6.634,0-12.016-5.377-12.016-12.017c0-6.641,5.382-12.016,12.016-12.016c6.637,0,12.02,5.375,12.02,12.016
		C27.514,89.264,22.131,94.641,15.495,94.641z M61.544,146.095c-3.297,0-5.996-2.124-6.314-4.838
		c2.734,0.737,5.523,1.319,8.354,1.74c-0.406,0.356-0.758,0.696-0.94,1.023c0.958,0.088,1.755-0.289,2.395-0.828
		c0.66,0.084,1.321,0.159,1.985,0.227C65.922,145.015,63.888,146.095,61.544,146.095z M75.287,147.864
		c-2.674,0-4.873-1.821-5.317-4.2c1.504,0.091,3.018,0.14,4.538,0.14c0.838,0,1.673-0.019,2.507-0.047
		c-0.493,0.438-0.957,0.821-1.105,1.316c1.729,0.05,2.603-0.588,3.021-1.402c0.564-0.034,1.126-0.076,1.688-0.122
		C80.224,145.984,77.999,147.864,75.287,147.864z M88.632,146.095c-2.399,0-4.474-1.13-5.557-2.787
		c0.73-0.085,1.458-0.181,2.184-0.287c0.976,0.495,2.216,0.583,3.562-0.614c2.079-0.408,4.131-0.904,6.151-1.485
		C94.848,143.793,92.059,146.095,88.632,146.095z M132.846,98.886l0.03,0.053c4.488,7.702-1.094,14.899-1.274,15.122
		c0,0-0.349,0.529-0.382,0.575c-9.862,13.424-24.614,22.695-41.149,26.303c-1.604,0.332-1.604,0.332-1.604,0.332l-4.115,0.68
		l-0.423,0.055l-4.675,0.456l-1.159,0.065c0,0-2.385,0.094-3.585,0.094c-23.013,0-44.411-10.735-57.315-28.828
		c-3.683-6.797-2.467-11.535-1.416-13.758c1.252-2.653,3.499-4.526,6.007-5.009c5.754-1.114,9.201,3.326,9.333,3.475
		c10.921,13.517,26.663,21.264,43.196,21.264c17.338,0,33.575-8.379,44.547-22.969c0.922-1.275,3.426-2.119,6.083-2.056
		C126.916,94.785,130.557,95.388,132.846,98.886z M122.793,82.625c0-6.641,5.379-12.016,12.017-12.016
		c6.637,0,12.016,5.375,12.016,12.016c0,6.64-5.379,12.017-12.016,12.017C128.172,94.641,122.793,89.264,122.793,82.625z"/>
	<path fill="#FFFFFF" d="M145.448,82.625c0-5.875-4.765-10.637-10.638-10.637c-5.876,0-10.639,4.762-10.639,10.637
		c0,5.876,4.763,10.638,10.639,10.638C140.683,93.262,145.448,88.5,145.448,82.625z M144.067,82.625
		c0,2.275-0.821,4.355-2.184,5.969c0.176-1.098,0.282-2.229,0.282-3.406c0-1.213-0.113-2.372-0.299-3.492
		c0.625-0.781,1.148-1.654,1.496-2.613C143.818,80.173,144.067,81.367,144.067,82.625z M139.805,74.842
		c1.303,0.838,2.394,1.993,3.138,3.354c-0.26,0.948-0.691,1.815-1.232,2.604c-0.465-2.173-1.271-4.102-2.308-5.676
		C139.531,75.026,139.678,74.945,139.805,74.842z M134.81,73.366c1.585,0,3.069,0.413,4.377,1.121
		c-1.46,1.147-3.297,1.837-5.296,1.837c-1.619,0-3.126-0.458-4.421-1.235C130.981,74.015,132.814,73.366,134.81,73.366z
		 M128.902,75.515c1.095,0.699,2.344,1.177,3.688,1.365c1.122,2.109,1.819,4.74,1.916,7.634c-3.751-0.074-6.914-2.537-8.01-5.944
		C127.073,77.386,127.9,76.347,128.902,75.515z M125.551,82.625c0-1.113,0.206-2.176,0.567-3.171
		c1.374,3.327,4.621,5.67,8.427,5.722c0,0.006,0,0.006,0,0.012c0,2.396-0.425,4.64-1.155,6.576
		C128.951,91.081,125.551,87.254,125.551,82.625z M135.203,85.187c0-3.084-0.662-5.916-1.754-8.236
		c0.148,0.004,0.291,0.028,0.442,0.028c1.789,0,3.452-0.528,4.867-1.407c1.686,2.406,2.749,5.809,2.749,9.615
		c0,1.5-0.17,2.936-0.474,4.278c-1.643,1.5-3.824,2.42-6.224,2.42c-0.236,0-0.462-0.019-0.691-0.036
		C134.808,89.863,135.203,87.599,135.203,85.187z"/>
	<path fill="#FFFFFF" d="M127.253,52.355c1.52-1.454,0.434-3.2,0.107-3.539l-0.843-0.885l-3.285,3.147l0.987,1.035
		C124.22,52.114,125.734,53.809,127.253,52.355z"/>
	<polygon fill="#FFFFFF" points="34.791,36.961 37.098,41.379 39.418,38.937 	"/>
	<path fill="#FFFFFF" d="M33.752,58.294C45.507,43.848,55.88,31.901,74.989,31.901c22.062,0,34.87,17.926,40.383,25.801
		c5.516,7.887,10.837,10.248,14.185,10.053c3.349-0.196,10.048-3.878,9.653-15.664c-1.577,0-6.896-6.203-9.062-8.369
		c-2.167-2.171-19.008-31.817-53.289-31.817c-36.048,0-50.824,23.149-55.157,29.646c-4.335,6.502-11.525,10.54-11.525,10.54
		c0.198,7.19,2.628,13.038,6.372,15.009C20.29,69.065,28.04,67.162,33.752,58.294z M129.54,48.816c0,0,3.045,3.234,0.405,5.761
		c-1.7,1.625-3.677,1.287-4.449,0.667c-0.342,1.977-1.438,5.876-1.438,5.876l-2.723-2.843l2.067-4.727l-1.318-1.372l-3.438,3.291
		l-1.976-2.062l9.009-8.628L129.54,48.816z M119.304,36.226l4.736,5.239l-1.244,1.125l-2.822-3.119l-2.552,2.31l2.82,3.117
		l-1.246,1.126l-2.82-3.119l-2.963,2.677l3.485,3.86l-1.242,1.126l-5.403-5.98L119.304,36.226z M109.26,27.215l7.59,7.109
		l-1.15,1.224l-2.749-2.578l-7.38,7.88l-2.082-1.953l7.377-7.875l-2.75-2.584L109.26,27.215z M100.422,31.211
		c0,0-0.447-1.282-0.969-2.045c-0.523-0.764-2.005-3.181-0.86-5.021c1.15-1.844,4.217-1.859,6.464-0.465
		c2.245,1.401,2.354,3.526,2.354,3.526l-1.753,0.409c0,0-0.094-0.598-0.507-1.362c-0.451-0.844-2.025-1.775-2.847-1.356
		c-1.109,0.575-0.415,2.079-0.415,2.079s1.161,2.269,1.621,3.257c0.637,1.378,0.54,2.579-0.216,3.791
		c-0.756,1.218-3.317,2.389-6.211,0.585c-2.895-1.804-2.964-3.59-2.964-3.59s0.433-0.299,1.767-0.833
		c0.097,1.993,2.577,3.699,3.722,3.13C100.985,32.637,100.422,31.211,100.422,31.211z M89.627,16.249l6.615,2.475l-0.589,1.574
		l-3.94-1.477l-1.204,3.223l3.938,1.47l-0.585,1.573l-3.94-1.469l-1.398,3.738l4.867,1.827l-0.585,1.567l-7.549-2.82L89.627,16.249z
		 M71.023,15.686h2.854v5.278h5.677v-5.278h2.856v12.475h-2.856v-5.766h-5.677v5.766h-2.854V15.686z M61.336,16.294
		c1.564-0.5,3.159-0.459,4.587-0.005l-0.554,1.728c-0.871-0.252-1.815-0.263-2.743,0.029c-2.525,0.805-3.903,3.55-3.084,6.128
		c0.82,2.58,3.531,4.022,6.058,3.218c0.93-0.299,1.699-0.856,2.265-1.569l1.619,0.857c-0.9,1.315-2.255,2.354-3.922,2.888
		c-3.852,1.229-7.923-0.752-9.088-4.417C55.305,21.487,57.486,17.523,61.336,16.294z M43.43,25.411l0.017,0.005l0.015-0.011
		l0.029,0.023l10.339,3.434l-4.521-7.156l2.416-1.521l6.661,10.539l-2.412,1.535l-10.044-3.493l4.442,7.03l-2.418,1.529
		l-6.662-10.546l2.147-1.356L43.43,25.411z M34.162,33.279l12.315,5.146l-2.384,2.511l-3.346-1.43l-2.987,3.141l1.669,3.196
		l-1.697,1.791l-5.605-12.205L34.162,33.279z M20.664,48.696l9.008,4.158l-3.387-9.581l2.372-2.286l8.652,8.983l-2.056,1.982
		l-5.801-6.02l2.993,8.656l-1.284,1.234l-9.115-3.848l6.351,6.588l-1.688,1.625l-8.656-8.983L20.664,48.696z"/>
</g>
</svg>
