<?xml version="1.0" encoding="utf-8"?>
<!-- Generator: Adobe Illustrator 16.0.4, SVG Export Plug-In . SVG Version: 6.00 Build 0)  -->
<!DOCTYPE svg PUBLIC "-//W3C//DTD SVG 1.1//EN" "http://www.w3.org/Graphics/SVG/1.1/DTD/svg11.dtd">
<svg version="1.1" id="Layer_1" xmlns="http://www.w3.org/2000/svg" xmlns:xlink="http://www.w3.org/1999/xlink" x="0px" y="0px"
	 width="15.874px" height="19.128px" viewBox="0 0 15.874 19.128" enable-background="new 0 0 15.874 19.128" xml:space="preserve">
<path d="M13.048,2.528h0.235v1.427h-0.836V2.528h0.354l-0.724-1.446l-0.628,1.446h0.259v1.427h-0.837V2.528h0.341l-0.723-1.446
	L9.86,2.528h0.271v2.558h1.576v0.755c-0.644-0.057-1.286,0.162-1.435,0.329c-0.264,0.296-1.643,0.591-0.953,0
	c0.689-0.59,1.051-0.59,0.46-0.885S9.058,4.661,9.058,4.661l0.065-2.003l0.854-1.41H8.959L8.335,0L7.688,1.248H6.793L6.169,0
	L5.521,1.248H4.429l1.74,3.348L5.152,5.58c0,0-0.229,0.886,0.296,1.443C5.973,7.581,6.104,7.91,5.71,8.47
	C5.317,9.026,5.284,9.256,5.284,9.256S4.726,10.108,4.66,9.026C4.595,7.943,4.396,6.204,4.396,6.204l0.922-1.675
	c0,0-1.281-0.329-1.544-2.985C3.149,2.396,2.525,1.936,2.165,1.643C1.771,2.856,1.147,3.676,0.82,3.381C0.491,3.086,0,2.954,0,2.954
	s0.919,1.541,0.523,2.428c1.084-1.081,1.97-1.476,2.331-1.248c0.361,0.232,0.427,0.527-0.559,1.413
	c0.74,0.324,0.894,0.322,0.92,0.29v4.961c0,0-0.197,1.773,1.115,1.773c0.755,0,0.888,0,0.888,0l-0.263,2.888
	c0,0,0.098,0.524,0.229,0.788s0.688,0.854,0.688,0.854s0.164,0.263,0.099,0.558c-0.064,0.296-0.296,1.281,0.297,1.444
	c0.59,0.165,1.673-0.525,1.902-0.655c0.229-0.132,0.559-0.46,0-1.118c-0.558-0.655-1.051-1.607-0.526-1.87
	c0.526-0.262,0.952-0.425,0.493-1.246c-0.46-0.821-1.312-2.857-0.623-2.068l3.02,3.348c0,0,0.46,0.491,0.525,0.133
	c-0.033-0.428-0.308-3.131-0.065-3.414c0.241-0.288-0.099-0.623-0.821-0.561c-0.065-0.688,0.131-0.981,0.164-1.247
	c0.033-0.262-0.493-0.328-1.247,0.166c-0.395,0.163,0.065-0.787,0.295-1.051c0.229-0.263,0.361-0.524,0.361-0.524l1.905,0.952
	c0,0,0.021,0,0.056,0v5.709h0.003c0.015,0.192,0.172,0.343,0.366,0.343c0.195,0,0.353-0.15,0.367-0.343h0.003V9.838
	c0.529-0.162,1.023-0.565,0.418-1.566c0.328-0.263,0.723-0.492,0.098-1.674c-0.129-0.246-0.31-0.417-0.516-0.537V5.086h1.576V2.528
	h0.376l-0.723-1.446L13.048,2.528z M6.498,3.021L6.432,1.97L6.99,2.823L6.498,3.021z M7.449,5.382L6.957,4.301
	c0.131,0,1.017,0,1.017,0L7.449,5.382z M8.271,3.021L7.778,2.823L8.335,1.97L8.271,3.021z"/>
</svg>
